<svg width="15" height="15" viewBox="0 0 15 15" fill="none" xmlns="http://www.w3.org/2000/svg">
<g clip-path="url(#clip0_263_19505)">
<path d="M15 7.54541C15 11.2885 12.2537 14.3917 8.66875 14.9548V9.72791H10.4119L10.7438 7.56541H8.66875V6.16229C8.66875 5.57041 8.95875 4.99416 9.8875 4.99416H10.8306V3.15291C10.8306 3.15291 9.97437 3.00666 9.15625 3.00666C7.4475 3.00666 6.33125 4.04229 6.33125 5.91666V7.56479H4.43188V9.72729H6.33125V14.9542C2.74687 14.3904 0 11.2879 0 7.54541C0 3.40354 3.35813 0.0454102 7.5 0.0454102C11.6419 0.0454102 15 3.40291 15 7.54541Z" fill="black"/>
</g>
<defs>
<clipPath id="clip0_263_19505">
<rect width="15" height="15" fill="white"/>
</clipPath>
</defs>
</svg>
