<svg width="15" height="15" viewBox="0 0 15 15" fill="none" xmlns="http://www.w3.org/2000/svg">
<g clip-path="url(#clip0_263_19508)">
<path d="M7.5 1.35125C9.5025 1.35125 9.74 1.35875 10.5306 1.395C11.3481 1.4325 12.19 1.61875 12.7856 2.21438C13.3869 2.81562 13.5675 3.64937 13.605 4.46938C13.6412 5.26 13.6487 5.4975 13.6487 7.5C13.6487 9.5025 13.6412 9.74 13.605 10.5306C13.5681 11.3438 13.3775 12.1938 12.7856 12.7856C12.1844 13.3869 11.3513 13.5675 10.5306 13.605C9.74 13.6412 9.5025 13.6487 7.5 13.6487C5.4975 13.6487 5.26 13.6412 4.46938 13.605C3.6625 13.5681 2.80125 13.3731 2.21438 12.7856C1.61625 12.1875 1.4325 11.3456 1.395 10.5306C1.35875 9.74 1.35125 9.5025 1.35125 7.5C1.35125 5.4975 1.35875 5.26 1.395 4.46938C1.43188 3.65937 1.62437 2.80437 2.21438 2.21438C2.81437 1.61437 3.65125 1.4325 4.46938 1.395C5.26 1.35875 5.4975 1.35125 7.5 1.35125ZM7.5 0C5.46312 0 5.2075 0.00875 4.4075 0.045C3.24813 0.098125 2.09687 0.420625 1.25875 1.25875C0.4175 2.1 0.098125 3.24875 0.045 4.4075C0.00875 5.2075 0 5.46312 0 7.5C0 9.53687 0.00875 9.7925 0.045 10.5925C0.098125 11.7506 0.421875 12.905 1.25875 13.7413C2.09938 14.5819 3.25 14.9019 4.4075 14.955C5.2075 14.9913 5.46312 15 7.5 15C9.53687 15 9.7925 14.9913 10.5925 14.955C11.7513 14.9019 12.9038 14.5787 13.7413 13.7413C14.5831 12.8994 14.9019 11.7513 14.955 10.5925C14.9913 9.7925 15 9.53687 15 7.5C15 5.46312 14.9913 5.2075 14.955 4.4075C14.9019 3.24813 14.5787 2.09625 13.7413 1.25875C12.9019 0.419375 11.7481 0.0975 10.5925 0.045C9.7925 0.00875 9.53687 0 7.5 0Z" fill="black"/>
<path d="M7.49969 3.64893C5.37281 3.64893 3.64844 5.3733 3.64844 7.50018C3.64844 9.62705 5.37281 11.3514 7.49969 11.3514C9.62656 11.3514 11.3509 9.62705 11.3509 7.50018C11.3509 5.3733 9.62656 3.64893 7.49969 3.64893ZM7.49969 10.0002C6.11906 10.0002 4.99969 8.8808 4.99969 7.50018C4.99969 6.11955 6.11906 5.00018 7.49969 5.00018C8.88031 5.00018 9.99969 6.11955 9.99969 7.50018C9.99969 8.8808 8.88031 10.0002 7.49969 10.0002Z" fill="black"/>
<path d="M11.5035 4.39619C12.0006 4.39619 12.4035 3.99325 12.4035 3.49619C12.4035 2.99914 12.0006 2.59619 11.5035 2.59619C11.0065 2.59619 10.6035 2.99914 10.6035 3.49619C10.6035 3.99325 11.0065 4.39619 11.5035 4.39619Z" fill="black"/>
</g>
<defs>
<clipPath id="clip0_263_19508">
<rect width="15" height="15" fill="white"/>
</clipPath>
</defs>
</svg>
