<svg width="15" height="15" viewBox="0 0 15 15" fill="none" xmlns="http://www.w3.org/2000/svg">
<g clip-path="url(#clip0_263_19513)">
<path d="M14.3761 13.4899H14.518L14.2461 13.0786C14.4123 13.0786 14.5005 12.973 14.5017 12.8436C14.5017 12.8386 14.5017 12.833 14.5011 12.828C14.5011 12.6518 14.3948 12.5674 14.1767 12.5674H13.8242V13.4899H13.9567V13.088H14.1198L14.3761 13.4899ZM14.1105 12.9836H13.9567V12.6718H14.1517C14.2523 12.6718 14.3673 12.688 14.3673 12.8199C14.3673 12.9711 14.2511 12.9836 14.1098 12.9836" fill="black"/>
<path d="M10.8069 11.9207H8.9275V8.9776C8.9275 8.27573 8.915 7.3726 7.95 7.3726C6.97125 7.3726 6.82125 8.13698 6.82125 8.92698V11.9207H4.9425V5.86823H6.74688V6.6951H6.77188C7.14 6.06635 7.82375 5.69073 8.55187 5.7176C10.4569 5.7176 10.8075 6.97073 10.8075 8.6001L10.8069 11.9207ZM2.82187 5.04073C2.21937 5.04073 1.73125 4.5526 1.73125 3.9501C1.73125 3.3476 2.21937 2.85948 2.82187 2.85948C3.42437 2.85948 3.9125 3.3476 3.9125 3.9501C3.9125 4.5526 3.42437 5.04073 2.82187 5.04073ZM3.76125 11.9207H1.88V5.86823H3.76125V11.9207ZM11.7438 1.11448H0.935625C0.425 1.10885 0.00625 1.51823 0 2.02885V12.8814C0.00625 13.3926 0.425 13.802 0.935625 13.7964H11.7438C12.2556 13.8026 12.6762 13.3932 12.6831 12.8814V2.02823C12.6756 1.51635 12.255 1.10698 11.7438 1.11385" fill="black"/>
<path d="M14.1278 12.1572C13.6503 12.1616 13.2665 12.5529 13.2715 13.0304C13.2759 13.5079 13.6672 13.8916 14.1447 13.8866C14.6222 13.8822 15.0059 13.491 15.0009 13.0135C14.9965 12.5422 14.6153 12.1616 14.1447 12.1572H14.1278ZM14.1478 13.7872C13.729 13.7941 13.364 13.461 13.3572 13.0422C13.3503 12.6235 13.684 12.2785 14.1028 12.2716C14.5215 12.2647 14.8665 12.5985 14.8734 13.0172C14.8734 13.0216 14.8734 13.0254 14.8734 13.0297C14.8822 13.4391 14.5572 13.7785 14.1478 13.7872H14.1284Z" fill="black"/>
</g>
<defs>
<clipPath id="clip0_263_19513">
<rect width="15" height="15" fill="white"/>
</clipPath>
</defs>
</svg>
