<svg width="15" height="15" viewBox="0 0 15 15" fill="none" xmlns="http://www.w3.org/2000/svg">
<g clip-path="url(#clip0_263_19518)">
<path d="M13.4644 4.44021C13.4731 4.57209 13.4731 4.70459 13.4731 4.83771C13.4731 8.90459 10.3769 13.594 4.71688 13.594V13.5915C3.045 13.594 1.4075 13.1152 0 12.2121C0.243125 12.2415 0.4875 12.2558 0.7325 12.2565C2.11875 12.2577 3.465 11.7927 4.55438 10.9365C3.2375 10.9115 2.0825 10.0527 1.67938 8.79896C2.14062 8.88771 2.61562 8.86959 3.06875 8.74646C1.6325 8.45646 0.6 7.19459 0.6 5.72959C0.6 5.71646 0.6 5.70334 0.6 5.69084C1.02813 5.92959 1.50687 6.06146 1.99687 6.07584C0.644375 5.17271 0.226875 3.37396 1.04375 1.96771C2.60625 3.89021 4.91187 5.05896 7.38625 5.18334C7.13812 4.11459 7.4775 2.99459 8.27625 2.24271C9.51562 1.07709 11.465 1.13709 12.6306 2.37646C13.32 2.24084 13.9806 1.98771 14.585 1.62959C14.355 2.34209 13.8744 2.94709 13.2319 3.33209C13.8425 3.25896 14.4381 3.09584 15 2.84709C14.5869 3.46521 14.0669 4.00459 13.4644 4.44021Z" fill="black"/>
</g>
<defs>
<clipPath id="clip0_263_19518">
<rect width="15" height="15" fill="white"/>
</clipPath>
</defs>
</svg>
